<?xml version="1.0" encoding="UTF-8" standalone="no"?>
<!DOCTYPE svg PUBLIC "-//W3C//DTD SVG 1.1//EN"
 "http://www.w3.org/Graphics/SVG/1.1/DTD/svg11.dtd">
<!-- Generated by graphviz version 2.40.1 (20161225.0304)
 -->
<!-- Title: orphans Pages: 1 -->
<svg width="302pt" height="747pt"
 viewBox="0.00 0.00 302.00 747.00" xmlns="http://www.w3.org/2000/svg" xmlns:xlink="http://www.w3.org/1999/xlink">
<g id="graph0" class="graph" transform="scale(1 1) rotate(0) translate(4 743)">
<title>orphans</title>
<polygon fill="#ffffff" stroke="transparent" points="-4,4 -4,-743 298,-743 298,4 -4,4"/>
<!-- knex_migrations -->
<g id="node1" class="node">
<title>knex_migrations</title>
<g id="a_node1"><a xlink:href="../../tables/knex_migrations.html" xlink:title="knex_migrations" target="_top">
<polygon fill="#ffffff" stroke="transparent" points="33,-4 33,-138 261,-138 261,-4 33,-4"/>
<polygon fill="#f5f5f5" stroke="transparent" points="35,-113 35,-136 259,-136 259,-113 35,-113"/>
<polygon fill="none" stroke="#000000" points="35,-113 35,-136 259,-136 259,-113 35,-113"/>
<text text-anchor="start" x="40" y="-121.6" font-family="Helvetica,sans-Serif" font-weight="bold" font-size="11.00" fill="#000000">knex_migrations</text>
<text text-anchor="start" x="224.0437" y="-121.1" font-family="Helvetica,sans-Serif" font-size="11.00" fill="#000000">[table]</text>
<polygon fill="none" stroke="#000000" points="35,-91 35,-113 167,-113 167,-91 35,-91"/>
<image xlink:href="../../images/primaryKeys.png" width="11px" height="12px" preserveAspectRatio="xMinYMin meet" x="40" y="-108"/>
<text text-anchor="start" x="55" y="-98.1" font-family="Helvetica,sans-Serif" font-size="11.00" fill="#000000">id</text>
<polygon fill="none" stroke="#000000" points="167,-91 167,-113 259,-113 259,-91 167,-91"/>
<text text-anchor="start" x="170" y="-98.7" font-family="Helvetica,sans-Serif" font-size="11.00" fill="#000000">serial[10]</text>
<polygon fill="none" stroke="#000000" points="35,-69 35,-91 167,-91 167,-69 35,-69"/>
<text text-anchor="start" x="55" y="-76.1" font-family="Helvetica,sans-Serif" font-size="11.00" fill="#000000">name</text>
<polygon fill="none" stroke="#000000" points="167,-69 167,-91 259,-91 259,-69 167,-69"/>
<text text-anchor="start" x="170" y="-76.7" font-family="Helvetica,sans-Serif" font-size="11.00" fill="#000000">varchar[255]</text>
<polygon fill="none" stroke="#000000" points="35,-47 35,-69 167,-69 167,-47 35,-47"/>
<text text-anchor="start" x="55" y="-54.1" font-family="Helvetica,sans-Serif" font-size="11.00" fill="#000000">batch</text>
<polygon fill="none" stroke="#000000" points="167,-47 167,-69 259,-69 259,-47 167,-47"/>
<text text-anchor="start" x="170" y="-54.7" font-family="Helvetica,sans-Serif" font-size="11.00" fill="#000000">int4[10]</text>
<polygon fill="none" stroke="#000000" points="35,-25 35,-47 167,-47 167,-25 35,-25"/>
<text text-anchor="start" x="55" y="-32.1" font-family="Helvetica,sans-Serif" font-size="11.00" fill="#000000">migration_time</text>
<polygon fill="none" stroke="#000000" points="167,-25 167,-47 259,-47 259,-25 167,-25"/>
<text text-anchor="start" x="169.6023" y="-32.7" font-family="Helvetica,sans-Serif" font-size="11.00" fill="#000000">timestamptz[35,6]</text>
<polygon fill="#ffffff" stroke="transparent" points="35,-6 35,-25 105,-25 105,-6 35,-6"/>
<polygon fill="none" stroke="#000000" points="35,-6 35,-25 105,-25 105,-6 35,-6"/>
<text text-anchor="start" x="38" y="-12.1" font-family="Helvetica,sans-Serif" font-size="11.00" fill="#000000">&lt; 0</text>
<polygon fill="#ffffff" stroke="transparent" points="105,-6 105,-25 167,-25 167,-6 105,-6"/>
<polygon fill="none" stroke="#000000" points="105,-6 105,-25 167,-25 167,-6 105,-6"/>
<text text-anchor="start" x="157.8862" y="-12.1" font-family="Helvetica,sans-Serif" font-size="11.00" fill="#000000"> &#160;</text>
<polygon fill="#ffffff" stroke="transparent" points="167,-6 167,-25 259,-25 259,-6 167,-6"/>
<polygon fill="none" stroke="#000000" points="167,-6 167,-25 259,-25 259,-6 167,-6"/>
<text text-anchor="start" x="240.4053" y="-12.1" font-family="Helvetica,sans-Serif" font-size="11.00" fill="#000000">0 &gt;</text>
<polygon fill="none" stroke="#000000" stroke-width="2" points="34,-5 34,-137 260,-137 260,-5 34,-5"/>
</a>
</g>
</g>
<!-- knex_migrations_lock -->
<g id="node2" class="node">
<title>knex_migrations_lock</title>
<g id="a_node2"><a xlink:href="../../tables/knex_migrations_lock.html" xlink:title="knex_migrations_lock" target="_top">
<polygon fill="#ffffff" stroke="transparent" points="37.5,-159 37.5,-249 256.5,-249 256.5,-159 37.5,-159"/>
<polygon fill="#f5f5f5" stroke="transparent" points="40,-224 40,-247 255,-247 255,-224 40,-224"/>
<polygon fill="none" stroke="#000000" points="40,-224 40,-247 255,-247 255,-224 40,-224"/>
<text text-anchor="start" x="45" y="-232.6" font-family="Helvetica,sans-Serif" font-weight="bold" font-size="11.00" fill="#000000">knex_migrations_lock</text>
<text text-anchor="start" x="220.0437" y="-232.1" font-family="Helvetica,sans-Serif" font-size="11.00" fill="#000000">[table]</text>
<polygon fill="none" stroke="#000000" points="40,-202 40,-224 205,-224 205,-202 40,-202"/>
<image xlink:href="../../images/primaryKeys.png" width="11px" height="12px" preserveAspectRatio="xMinYMin meet" x="45" y="-219"/>
<text text-anchor="start" x="60" y="-209.1" font-family="Helvetica,sans-Serif" font-size="11.00" fill="#000000">index</text>
<polygon fill="none" stroke="#000000" points="205,-202 205,-224 255,-224 255,-202 205,-202"/>
<text text-anchor="start" x="207.6915" y="-209.7" font-family="Helvetica,sans-Serif" font-size="11.00" fill="#000000">serial[10]</text>
<polygon fill="none" stroke="#000000" points="40,-180 40,-202 205,-202 205,-180 40,-180"/>
<text text-anchor="start" x="60" y="-187.1" font-family="Helvetica,sans-Serif" font-size="11.00" fill="#000000">is_locked</text>
<polygon fill="none" stroke="#000000" points="205,-180 205,-202 255,-202 255,-180 205,-180"/>
<text text-anchor="start" x="208" y="-187.7" font-family="Helvetica,sans-Serif" font-size="11.00" fill="#000000">int4[10]</text>
<polygon fill="#ffffff" stroke="transparent" points="40,-161 40,-180 127,-180 127,-161 40,-161"/>
<polygon fill="none" stroke="#000000" points="40,-161 40,-180 127,-180 127,-161 40,-161"/>
<text text-anchor="start" x="43" y="-167.1" font-family="Helvetica,sans-Serif" font-size="11.00" fill="#000000">&lt; 0</text>
<polygon fill="#ffffff" stroke="transparent" points="127,-161 127,-180 205,-180 205,-161 127,-161"/>
<polygon fill="none" stroke="#000000" points="127,-161 127,-180 205,-180 205,-161 127,-161"/>
<text text-anchor="start" x="195.8862" y="-167.1" font-family="Helvetica,sans-Serif" font-size="11.00" fill="#000000"> &#160;</text>
<polygon fill="#ffffff" stroke="transparent" points="205,-161 205,-180 255,-180 255,-161 205,-161"/>
<polygon fill="none" stroke="#000000" points="205,-161 205,-180 255,-180 255,-161 205,-161"/>
<text text-anchor="start" x="236.4053" y="-167.1" font-family="Helvetica,sans-Serif" font-size="11.00" fill="#000000">0 &gt;</text>
<polygon fill="none" stroke="#000000" stroke-width="2" points="38.5,-160 38.5,-248 255.5,-248 255.5,-160 38.5,-160"/>
</a>
</g>
</g>
<!-- report_edit -->
<g id="node3" class="node">
<title>report_edit</title>
<g id="a_node3"><a xlink:href="../../tables/report_edit.html" xlink:title="report_edit" target="_top">
<polygon fill="#ffffff" stroke="transparent" points="8,-270 8,-536 286,-536 286,-270 8,-270"/>
<polygon fill="#f5f5f5" stroke="transparent" points="10,-511 10,-534 284,-534 284,-511 10,-511"/>
<polygon fill="none" stroke="#000000" points="10,-511 10,-534 284,-534 284,-511 10,-511"/>
<text text-anchor="start" x="15" y="-519.6" font-family="Helvetica,sans-Serif" font-weight="bold" font-size="11.00" fill="#000000">report_edit</text>
<text text-anchor="start" x="249.0437" y="-519.1" font-family="Helvetica,sans-Serif" font-size="11.00" fill="#000000">[table]</text>
<polygon fill="none" stroke="#000000" points="10,-489 10,-511 185,-511 185,-489 10,-489"/>
<image xlink:href="../../images/primaryKeys.png" width="11px" height="12px" preserveAspectRatio="xMinYMin meet" x="15" y="-506"/>
<text text-anchor="start" x="30" y="-496.1" font-family="Helvetica,sans-Serif" font-size="11.00" fill="#000000">id</text>
<polygon fill="none" stroke="#000000" points="185,-489 185,-511 284,-511 284,-489 185,-489"/>
<text text-anchor="start" x="188" y="-496.7" font-family="Helvetica,sans-Serif" font-size="11.00" fill="#000000">serial[10]</text>
<polygon fill="none" stroke="#000000" points="10,-467 10,-489 185,-489 185,-467 10,-467"/>
<text text-anchor="start" x="30" y="-474.1" font-family="Helvetica,sans-Serif" font-size="11.00" fill="#000000">edit_date</text>
<polygon fill="none" stroke="#000000" points="185,-467 185,-489 284,-489 284,-467 185,-467"/>
<text text-anchor="start" x="188" y="-474.7" font-family="Helvetica,sans-Serif" font-size="11.00" fill="#000000">timestamptz[35,6]</text>
<polygon fill="none" stroke="#000000" points="10,-445 10,-467 185,-467 185,-445 10,-445"/>
<text text-anchor="start" x="30" y="-452.1" font-family="Helvetica,sans-Serif" font-size="11.00" fill="#000000">editor_user_id</text>
<polygon fill="none" stroke="#000000" points="185,-445 185,-467 284,-467 284,-445 185,-445"/>
<text text-anchor="start" x="188" y="-452.7" font-family="Helvetica,sans-Serif" font-size="11.00" fill="#000000">varchar[32]</text>
<polygon fill="none" stroke="#000000" points="10,-423 10,-445 185,-445 185,-423 10,-423"/>
<text text-anchor="start" x="30" y="-430.1" font-family="Helvetica,sans-Serif" font-size="11.00" fill="#000000">editor_name</text>
<polygon fill="none" stroke="#000000" points="185,-423 185,-445 284,-445 284,-423 185,-423"/>
<text text-anchor="start" x="188" y="-430.7" font-family="Helvetica,sans-Serif" font-size="11.00" fill="#000000">varchar[128]</text>
<polygon fill="#ffffff" stroke="transparent" points="10,-401 10,-423 185,-423 185,-401 10,-401"/>
<polygon fill="none" stroke="#000000" points="10,-401 10,-423 185,-423 185,-401 10,-401"/>
<text text-anchor="start" x="30" y="-408.1" font-family="Helvetica,sans-Serif" font-size="11.00" fill="#000000">report_id</text>
<polygon fill="none" stroke="#000000" points="185,-401 185,-423 284,-423 284,-401 185,-401"/>
<text text-anchor="start" x="188" y="-408.7" font-family="Helvetica,sans-Serif" font-size="11.00" fill="#000000">int8[19]</text>
<polygon fill="none" stroke="#000000" points="10,-379 10,-401 185,-401 185,-379 10,-379"/>
<text text-anchor="start" x="30" y="-386.1" font-family="Helvetica,sans-Serif" font-size="11.00" fill="#000000">reason</text>
<polygon fill="none" stroke="#000000" points="185,-379 185,-401 284,-401 284,-379 185,-379"/>
<text text-anchor="start" x="188" y="-386.7" font-family="Helvetica,sans-Serif" font-size="11.00" fill="#000000">varchar[128]</text>
<polygon fill="none" stroke="#000000" points="10,-357 10,-379 185,-379 185,-357 10,-357"/>
<text text-anchor="start" x="30" y="-364.1" font-family="Helvetica,sans-Serif" font-size="11.00" fill="#000000">additional_comments</text>
<polygon fill="none" stroke="#000000" points="185,-357 185,-379 284,-379 284,-357 185,-357"/>
<text text-anchor="start" x="188" y="-364.7" font-family="Helvetica,sans-Serif" font-size="11.00" fill="#000000">varchar[1000]</text>
<polygon fill="none" stroke="#000000" points="10,-335 10,-357 185,-357 185,-335 10,-335"/>
<text text-anchor="start" x="30" y="-342.1" font-family="Helvetica,sans-Serif" font-size="11.00" fill="#000000">report_owner_changed</text>
<polygon fill="none" stroke="#000000" points="185,-335 185,-357 284,-357 284,-335 185,-335"/>
<text text-anchor="start" x="188" y="-342.7" font-family="Helvetica,sans-Serif" font-size="11.00" fill="#000000">bool[1]</text>
<polygon fill="none" stroke="#000000" points="10,-313 10,-335 185,-335 185,-313 10,-313"/>
<text text-anchor="start" x="30" y="-320.1" font-family="Helvetica,sans-Serif" font-size="11.00" fill="#000000">changes</text>
<polygon fill="none" stroke="#000000" points="185,-313 185,-335 284,-335 284,-313 185,-313"/>
<text text-anchor="start" x="187.7258" y="-320.7" font-family="Helvetica,sans-Serif" font-size="11.00" fill="#000000">jsonb[2147483647]</text>
<polygon fill="none" stroke="#000000" points="10,-291 10,-313 185,-313 185,-291 10,-291"/>
<text text-anchor="start" x="30" y="-298.1" font-family="Helvetica,sans-Serif" font-size="11.00" fill="#000000">reason_text</text>
<polygon fill="none" stroke="#000000" points="185,-291 185,-313 284,-313 284,-291 185,-291"/>
<text text-anchor="start" x="188" y="-298.7" font-family="Helvetica,sans-Serif" font-size="11.00" fill="#000000">text[2147483647]</text>
<polygon fill="#ffffff" stroke="transparent" points="10,-272 10,-291 102,-291 102,-272 10,-272"/>
<polygon fill="none" stroke="#000000" points="10,-272 10,-291 102,-291 102,-272 10,-272"/>
<text text-anchor="start" x="13" y="-278.1" font-family="Helvetica,sans-Serif" font-size="11.00" fill="#000000">&lt; 0</text>
<polygon fill="#ffffff" stroke="transparent" points="102,-272 102,-291 185,-291 185,-272 102,-272"/>
<polygon fill="none" stroke="#000000" points="102,-272 102,-291 185,-291 185,-272 102,-272"/>
<text text-anchor="start" x="175.8862" y="-278.1" font-family="Helvetica,sans-Serif" font-size="11.00" fill="#000000"> &#160;</text>
<polygon fill="#ffffff" stroke="transparent" points="185,-272 185,-291 284,-291 284,-272 185,-272"/>
<polygon fill="none" stroke="#000000" points="185,-272 185,-291 284,-291 284,-272 185,-272"/>
<text text-anchor="start" x="265.4053" y="-278.1" font-family="Helvetica,sans-Serif" font-size="11.00" fill="#000000">0 &gt;</text>
<polygon fill="none" stroke="#000000" stroke-width="2" points="9,-271 9,-535 285,-535 285,-271 9,-271"/>
</a>
</g>
</g>
<!-- report_log -->
<g id="node4" class="node">
<title>report_log</title>
<g id="a_node4"><a xlink:href="../../tables/report_log.html" xlink:title="report_log" target="_top">
<polygon fill="#ffffff" stroke="transparent" points="49,-557 49,-735 245,-735 245,-557 49,-557"/>
<polygon fill="#f5f5f5" stroke="transparent" points="51,-710 51,-733 243,-733 243,-710 51,-710"/>
<polygon fill="none" stroke="#000000" points="51,-710 51,-733 243,-733 243,-710 51,-710"/>
<text text-anchor="start" x="56" y="-718.6" font-family="Helvetica,sans-Serif" font-weight="bold" font-size="11.00" fill="#000000">report_log</text>
<text text-anchor="start" x="208.0437" y="-718.1" font-family="Helvetica,sans-Serif" font-size="11.00" fill="#000000">[table]</text>
<polygon fill="none" stroke="#000000" points="51,-688 51,-710 144,-710 144,-688 51,-688"/>
<image xlink:href="../../images/primaryKeys.png" width="11px" height="12px" preserveAspectRatio="xMinYMin meet" x="56" y="-705"/>
<text text-anchor="start" x="71" y="-695.1" font-family="Helvetica,sans-Serif" font-size="11.00" fill="#000000">id</text>
<polygon fill="none" stroke="#000000" points="144,-688 144,-710 243,-710 243,-688 144,-688"/>
<text text-anchor="start" x="147" y="-695.7" font-family="Helvetica,sans-Serif" font-size="11.00" fill="#000000">serial[10]</text>
<polygon fill="none" stroke="#000000" points="51,-666 51,-688 144,-688 144,-666 51,-666"/>
<text text-anchor="start" x="71" y="-673.1" font-family="Helvetica,sans-Serif" font-size="11.00" fill="#000000">timestamp</text>
<polygon fill="none" stroke="#000000" points="144,-666 144,-688 243,-688 243,-666 144,-666"/>
<text text-anchor="start" x="147" y="-673.7" font-family="Helvetica,sans-Serif" font-size="11.00" fill="#000000">timestamptz[35,6]</text>
<polygon fill="none" stroke="#000000" points="51,-644 51,-666 144,-666 144,-644 51,-644"/>
<text text-anchor="start" x="71" y="-651.1" font-family="Helvetica,sans-Serif" font-size="11.00" fill="#000000">username</text>
<polygon fill="none" stroke="#000000" points="144,-644 144,-666 243,-666 243,-644 144,-644"/>
<text text-anchor="start" x="147" y="-651.7" font-family="Helvetica,sans-Serif" font-size="11.00" fill="#000000">varchar[50]</text>
<polygon fill="#ffffff" stroke="transparent" points="51,-622 51,-644 144,-644 144,-622 51,-622"/>
<polygon fill="none" stroke="#000000" points="51,-622 51,-644 144,-644 144,-622 51,-622"/>
<text text-anchor="start" x="71" y="-629.1" font-family="Helvetica,sans-Serif" font-size="11.00" fill="#000000">report_id</text>
<polygon fill="none" stroke="#000000" points="144,-622 144,-644 243,-644 243,-622 144,-622"/>
<text text-anchor="start" x="147" y="-629.7" font-family="Helvetica,sans-Serif" font-size="11.00" fill="#000000">int8[19]</text>
<polygon fill="none" stroke="#000000" points="51,-600 51,-622 144,-622 144,-600 51,-600"/>
<text text-anchor="start" x="71" y="-607.1" font-family="Helvetica,sans-Serif" font-size="11.00" fill="#000000">action</text>
<polygon fill="none" stroke="#000000" points="144,-600 144,-622 243,-622 243,-600 144,-600"/>
<text text-anchor="start" x="147" y="-607.7" font-family="Helvetica,sans-Serif" font-size="11.00" fill="#000000">varchar[50]</text>
<polygon fill="none" stroke="#000000" points="51,-578 51,-600 144,-600 144,-578 51,-578"/>
<text text-anchor="start" x="71" y="-585.1" font-family="Helvetica,sans-Serif" font-size="11.00" fill="#000000">details</text>
<polygon fill="none" stroke="#000000" points="144,-578 144,-600 243,-600 243,-578 144,-578"/>
<text text-anchor="start" x="146.7258" y="-585.7" font-family="Helvetica,sans-Serif" font-size="11.00" fill="#000000">jsonb[2147483647]</text>
<polygon fill="#ffffff" stroke="transparent" points="51,-559 51,-578 102,-578 102,-559 51,-559"/>
<polygon fill="none" stroke="#000000" points="51,-559 51,-578 102,-578 102,-559 51,-559"/>
<text text-anchor="start" x="54" y="-565.1" font-family="Helvetica,sans-Serif" font-size="11.00" fill="#000000">&lt; 0</text>
<polygon fill="#ffffff" stroke="transparent" points="102,-559 102,-578 144,-578 144,-559 102,-559"/>
<polygon fill="none" stroke="#000000" points="102,-559 102,-578 144,-578 144,-559 102,-559"/>
<text text-anchor="start" x="134.8862" y="-565.1" font-family="Helvetica,sans-Serif" font-size="11.00" fill="#000000"> &#160;</text>
<polygon fill="#ffffff" stroke="transparent" points="144,-559 144,-578 243,-578 243,-559 144,-559"/>
<polygon fill="none" stroke="#000000" points="144,-559 144,-578 243,-578 243,-559 144,-559"/>
<text text-anchor="start" x="224.4053" y="-565.1" font-family="Helvetica,sans-Serif" font-size="11.00" fill="#000000">0 &gt;</text>
<polygon fill="none" stroke="#000000" stroke-width="2" points="50,-558 50,-734 244,-734 244,-558 50,-558"/>
</a>
</g>
</g>
</g>
</svg>
