<?xml version="1.0" encoding="UTF-8" standalone="no"?>
<!DOCTYPE svg PUBLIC "-//W3C//DTD SVG 1.1//EN"
 "http://www.w3.org/Graphics/SVG/1.1/DTD/svg11.dtd">
<!-- Generated by graphviz version 2.40.1 (20161225.0304)
 -->
<!-- Title: oneDegreeRelationshipsDiagram Pages: 1 -->
<svg width="555pt" height="245pt"
 viewBox="0.00 0.00 555.00 244.70" xmlns="http://www.w3.org/2000/svg" xmlns:xlink="http://www.w3.org/1999/xlink">
<g id="graph0" class="graph" transform="scale(1 1) rotate(0) translate(4 240.7)">
<title>oneDegreeRelationshipsDiagram</title>
<polygon fill="#ffffff" stroke="transparent" points="-4,4 -4,-240.7 551,-240.7 551,4 -4,4"/>
<text text-anchor="middle" x="72.4936" y="-7.3" font-family="Helvetica,sans-Serif" font-size="11.00" fill="#000000">Generated by SchemaSpy</text>
<!-- statement_amendments -->
<g id="node1" class="node">
<title>statement_amendments</title>
<g id="a_node1"><a xlink:href="../../tables/statement_amendments.html" xlink:title="statement_amendments" target="_top">
<polygon fill="#ffffff" stroke="transparent" points="259,-76.7 259,-232.7 539,-232.7 539,-76.7 259,-76.7"/>
<polygon fill="#f5f5f5" stroke="transparent" points="261,-207.7 261,-230.7 537,-230.7 537,-207.7 261,-207.7"/>
<polygon fill="none" stroke="#000000" points="261,-207.7 261,-230.7 537,-230.7 537,-207.7 261,-207.7"/>
<text text-anchor="start" x="266" y="-216.3" font-family="Helvetica,sans-Serif" font-weight="bold" font-size="11.00" fill="#000000">statement_amendments</text>
<text text-anchor="start" x="502.0437" y="-215.8" font-family="Helvetica,sans-Serif" font-size="11.00" fill="#000000">[table]</text>
<polygon fill="none" stroke="#000000" points="261,-185.7 261,-207.7 445,-207.7 445,-185.7 261,-185.7"/>
<image xlink:href="../../images/primaryKeys.png" width="11px" height="12px" preserveAspectRatio="xMinYMin meet" x="266" y="-202.7"/>
<text text-anchor="start" x="281" y="-192.8" font-family="Helvetica,sans-Serif" font-size="11.00" fill="#000000">id</text>
<polygon fill="none" stroke="#000000" points="445,-185.7 445,-207.7 537,-207.7 537,-185.7 445,-185.7"/>
<text text-anchor="start" x="448" y="-193.4" font-family="Helvetica,sans-Serif" font-size="11.00" fill="#000000">serial[10]</text>
<polygon fill="#ffffff" stroke="transparent" points="261,-163.7 261,-185.7 445,-185.7 445,-163.7 261,-163.7"/>
<polygon fill="none" stroke="#000000" points="261,-163.7 261,-185.7 445,-185.7 445,-163.7 261,-163.7"/>
<image xlink:href="../../images/foreignKeys.png" width="11px" height="12px" preserveAspectRatio="xMinYMin meet" x="266" y="-180.7"/>
<text text-anchor="start" x="281" y="-170.8" font-family="Helvetica,sans-Serif" font-size="11.00" fill="#000000">statement_id</text>
<polygon fill="none" stroke="#000000" points="445,-163.7 445,-185.7 537,-185.7 537,-163.7 445,-163.7"/>
<text text-anchor="start" x="448" y="-171.4" font-family="Helvetica,sans-Serif" font-size="11.00" fill="#000000">int4[10]</text>
<polygon fill="none" stroke="#000000" points="261,-141.7 261,-163.7 445,-163.7 445,-141.7 261,-141.7"/>
<text text-anchor="start" x="281" y="-148.8" font-family="Helvetica,sans-Serif" font-size="11.00" fill="#000000">additional_comment</text>
<polygon fill="none" stroke="#000000" points="445,-141.7 445,-163.7 537,-163.7 537,-141.7 445,-141.7"/>
<text text-anchor="start" x="448" y="-149.4" font-family="Helvetica,sans-Serif" font-size="11.00" fill="#000000">text[2147483647]</text>
<polygon fill="none" stroke="#000000" points="261,-119.7 261,-141.7 445,-141.7 445,-119.7 261,-119.7"/>
<text text-anchor="start" x="281" y="-126.8" font-family="Helvetica,sans-Serif" font-size="11.00" fill="#000000">date_submitted</text>
<polygon fill="none" stroke="#000000" points="445,-119.7 445,-141.7 537,-141.7 537,-119.7 445,-119.7"/>
<text text-anchor="start" x="447.6023" y="-127.4" font-family="Helvetica,sans-Serif" font-size="11.00" fill="#000000">timestamptz[35,6]</text>
<polygon fill="none" stroke="#000000" points="261,-97.7 261,-119.7 445,-119.7 445,-97.7 261,-97.7"/>
<text text-anchor="start" x="281" y="-104.8" font-family="Helvetica,sans-Serif" font-size="11.00" fill="#000000">deleted</text>
<polygon fill="none" stroke="#000000" points="445,-97.7 445,-119.7 537,-119.7 537,-97.7 445,-97.7"/>
<text text-anchor="start" x="447.6023" y="-105.4" font-family="Helvetica,sans-Serif" font-size="11.00" fill="#000000">timestamptz[35,6]</text>
<polygon fill="#ffffff" stroke="transparent" points="261,-78.7 261,-97.7 357,-97.7 357,-78.7 261,-78.7"/>
<polygon fill="none" stroke="#000000" points="261,-78.7 261,-97.7 357,-97.7 357,-78.7 261,-78.7"/>
<text text-anchor="start" x="264" y="-84.8" font-family="Helvetica,sans-Serif" font-size="11.00" fill="#000000">&lt; 1</text>
<polygon fill="#ffffff" stroke="transparent" points="357,-78.7 357,-97.7 445,-97.7 445,-78.7 357,-78.7"/>
<polygon fill="none" stroke="#000000" points="357,-78.7 357,-97.7 445,-97.7 445,-78.7 357,-78.7"/>
<text text-anchor="start" x="435.8862" y="-84.8" font-family="Helvetica,sans-Serif" font-size="11.00" fill="#000000"> &#160;</text>
<polygon fill="#ffffff" stroke="transparent" points="445,-78.7 445,-97.7 537,-97.7 537,-78.7 445,-78.7"/>
<polygon fill="none" stroke="#000000" points="445,-78.7 445,-97.7 537,-97.7 537,-78.7 445,-78.7"/>
<text text-anchor="start" x="518.4053" y="-84.8" font-family="Helvetica,sans-Serif" font-size="11.00" fill="#000000">0 &gt;</text>
<polygon fill="none" stroke="#000000" stroke-width="2" points="260,-77.7 260,-231.7 538,-231.7 538,-77.7 260,-77.7"/>
</a>
</g>
</g>
<!-- statement -->
<g id="node2" class="node">
<title>statement</title>
<g id="a_node2"><a xlink:href="../../tables/statement.html" xlink:title="statement" target="_top">
<polygon fill="#ffffff" stroke="transparent" points="8,-38.2 8,-209.2 210,-209.2 210,-38.2 8,-38.2"/>
<polygon fill="#f5f5f5" stroke="transparent" points="8,-185.7 8,-208.7 210,-208.7 210,-185.7 8,-185.7"/>
<polygon fill="none" stroke="#000000" points="8,-185.7 8,-208.7 210,-208.7 210,-185.7 8,-185.7"/>
<text text-anchor="start" x="13" y="-194.3" font-family="Helvetica,sans-Serif" font-weight="bold" font-size="11.00" fill="#000000">statement</text>
<text text-anchor="start" x="175.0437" y="-193.8" font-family="Helvetica,sans-Serif" font-size="11.00" fill="#000000">[table]</text>
<polygon fill="none" stroke="#000000" points="8,-163.7 8,-185.7 210,-185.7 210,-163.7 8,-163.7"/>
<image xlink:href="../../images/primaryKeys.png" width="11px" height="12px" preserveAspectRatio="xMinYMin meet" x="13" y="-180.7"/>
<text text-anchor="start" x="28" y="-170.8" font-family="Helvetica,sans-Serif" font-size="11.00" fill="#000000">id</text>
<polygon fill="#ffffff" stroke="transparent" points="8,-141.7 8,-163.7 210,-163.7 210,-141.7 8,-141.7"/>
<polygon fill="none" stroke="#000000" points="8,-141.7 8,-163.7 210,-163.7 210,-141.7 8,-141.7"/>
<image xlink:href="../../images/foreignKeys.png" width="11px" height="12px" preserveAspectRatio="xMinYMin meet" x="13" y="-158.7"/>
<text text-anchor="start" x="28" y="-148.8" font-family="Helvetica,sans-Serif" font-size="11.00" fill="#000000">report_id</text>
<polygon fill="#ffffff" stroke="transparent" points="8,-119.7 8,-141.7 210,-141.7 210,-119.7 8,-119.7"/>
<polygon fill="none" stroke="#000000" points="8,-119.7 8,-141.7 210,-141.7 210,-119.7 8,-119.7"/>
<text text-anchor="start" x="28" y="-126.8" font-family="Helvetica,sans-Serif" font-size="11.00" fill="#000000">user_id</text>
<polygon fill="#ffffff" stroke="transparent" points="8,-97.7 8,-119.7 210,-119.7 210,-97.7 8,-97.7"/>
<polygon fill="none" stroke="#000000" points="8,-97.7 8,-119.7 210,-119.7 210,-97.7 8,-97.7"/>
<text text-anchor="start" x="28" y="-104.8" font-family="Helvetica,sans-Serif" font-size="11.00" fill="#000000">statement_status</text>
<polygon fill="#ffffff" stroke="transparent" points="8,-75.7 8,-97.7 210,-97.7 210,-75.7 8,-75.7"/>
<polygon fill="none" stroke="#000000" points="8,-75.7 8,-97.7 210,-97.7 210,-75.7 8,-75.7"/>
<text text-anchor="start" x="28" y="-82.8" font-family="Helvetica,sans-Serif" font-size="11.00" fill="#000000">next_reminder_date</text>
<polygon fill="none" stroke="#000000" points="8,-56.7 8,-75.7 210,-75.7 210,-56.7 8,-56.7"/>
<text text-anchor="start" x="11" y="-62.8" font-family="Helvetica,sans-Serif" font-size="11.00" fill="#000000">...</text>
<polygon fill="#ffffff" stroke="transparent" points="8,-37.7 8,-56.7 103,-56.7 103,-37.7 8,-37.7"/>
<polygon fill="none" stroke="#000000" points="8,-37.7 8,-56.7 103,-56.7 103,-37.7 8,-37.7"/>
<text text-anchor="start" x="11" y="-43.8" font-family="Helvetica,sans-Serif" font-size="11.00" fill="#000000">&lt; 1</text>
<polygon fill="#ffffff" stroke="transparent" points="103,-37.7 103,-56.7 152,-56.7 152,-37.7 103,-37.7"/>
<polygon fill="none" stroke="#000000" points="103,-37.7 103,-56.7 152,-56.7 152,-37.7 103,-37.7"/>
<text text-anchor="start" x="142.8862" y="-43.8" font-family="Helvetica,sans-Serif" font-size="11.00" fill="#000000"> &#160;</text>
<polygon fill="#ffffff" stroke="transparent" points="152,-37.7 152,-56.7 210,-56.7 210,-37.7 152,-37.7"/>
<polygon fill="none" stroke="#000000" points="152,-37.7 152,-56.7 210,-56.7 210,-37.7 152,-37.7"/>
<text text-anchor="start" x="191.4053" y="-43.8" font-family="Helvetica,sans-Serif" font-size="11.00" fill="#000000">1 &gt;</text>
</a>
</g>
</g>
<!-- statement_amendments&#45;&gt;statement -->
<g id="edge1" class="edge">
<title>statement_amendments:w&#45;&gt;statement:e</title>
<path fill="none" stroke="#000000" d="M246.276,-174.7C234.2815,-174.7 226.8229,-174.7 210,-174.7"/>
<polygon fill="#000000" stroke="#000000" points="253,-174.7001 261,-178.3 257,-174.7 261,-174.7 261,-174.7 261,-174.7 257,-174.7 261,-171.1 253,-174.7001 253,-174.7001"/>
<ellipse fill="none" stroke="#000000" cx="249.8" cy="-174.7001" rx="3.2" ry="3.2"/>
</g>
</g>
</svg>
