<?xml version="1.0" encoding="UTF-8" standalone="no"?>
<!DOCTYPE svg PUBLIC "-//W3C//DTD SVG 1.1//EN"
 "http://www.w3.org/Graphics/SVG/1.1/DTD/svg11.dtd">
<!-- Generated by graphviz version 2.40.1 (20161225.0304)
 -->
<!-- Title: twoDegreesRelationshipsDiagram Pages: 1 -->
<svg width="685pt" height="245pt"
 viewBox="0.00 0.00 685.00 244.70" xmlns="http://www.w3.org/2000/svg" xmlns:xlink="http://www.w3.org/1999/xlink">
<g id="graph0" class="graph" transform="scale(1 1) rotate(0) translate(4 240.7)">
<title>twoDegreesRelationshipsDiagram</title>
<polygon fill="#ffffff" stroke="transparent" points="-4,4 -4,-240.7 681,-240.7 681,4 -4,4"/>
<text text-anchor="middle" x="72.4936" y="-7.3" font-family="Helvetica,sans-Serif" font-size="11.00" fill="#000000">Generated by SchemaSpy</text>
<!-- statement -->
<g id="node1" class="node">
<title>statement</title>
<g id="a_node1"><a xlink:href="../../tables/statement.html" xlink:title="statement" target="_top">
<polygon fill="#ffffff" stroke="transparent" points="138,-38.2 138,-209.2 340,-209.2 340,-38.2 138,-38.2"/>
<polygon fill="#f5f5f5" stroke="transparent" points="138,-185.7 138,-208.7 340,-208.7 340,-185.7 138,-185.7"/>
<polygon fill="none" stroke="#000000" points="138,-185.7 138,-208.7 340,-208.7 340,-185.7 138,-185.7"/>
<text text-anchor="start" x="143" y="-194.3" font-family="Helvetica,sans-Serif" font-weight="bold" font-size="11.00" fill="#000000">statement</text>
<text text-anchor="start" x="305.0437" y="-193.8" font-family="Helvetica,sans-Serif" font-size="11.00" fill="#000000">[table]</text>
<polygon fill="none" stroke="#000000" points="138,-163.7 138,-185.7 340,-185.7 340,-163.7 138,-163.7"/>
<image xlink:href="../../images/primaryKeys.png" width="11px" height="12px" preserveAspectRatio="xMinYMin meet" x="143" y="-180.7"/>
<text text-anchor="start" x="158" y="-170.8" font-family="Helvetica,sans-Serif" font-size="11.00" fill="#000000">id</text>
<polygon fill="#ffffff" stroke="transparent" points="138,-141.7 138,-163.7 340,-163.7 340,-141.7 138,-141.7"/>
<polygon fill="none" stroke="#000000" points="138,-141.7 138,-163.7 340,-163.7 340,-141.7 138,-141.7"/>
<image xlink:href="../../images/foreignKeys.png" width="11px" height="12px" preserveAspectRatio="xMinYMin meet" x="143" y="-158.7"/>
<text text-anchor="start" x="158" y="-148.8" font-family="Helvetica,sans-Serif" font-size="11.00" fill="#000000">report_id</text>
<polygon fill="#ffffff" stroke="transparent" points="138,-119.7 138,-141.7 340,-141.7 340,-119.7 138,-119.7"/>
<polygon fill="none" stroke="#000000" points="138,-119.7 138,-141.7 340,-141.7 340,-119.7 138,-119.7"/>
<text text-anchor="start" x="158" y="-126.8" font-family="Helvetica,sans-Serif" font-size="11.00" fill="#000000">user_id</text>
<polygon fill="#ffffff" stroke="transparent" points="138,-97.7 138,-119.7 340,-119.7 340,-97.7 138,-97.7"/>
<polygon fill="none" stroke="#000000" points="138,-97.7 138,-119.7 340,-119.7 340,-97.7 138,-97.7"/>
<text text-anchor="start" x="158" y="-104.8" font-family="Helvetica,sans-Serif" font-size="11.00" fill="#000000">statement_status</text>
<polygon fill="#ffffff" stroke="transparent" points="138,-75.7 138,-97.7 340,-97.7 340,-75.7 138,-75.7"/>
<polygon fill="none" stroke="#000000" points="138,-75.7 138,-97.7 340,-97.7 340,-75.7 138,-75.7"/>
<text text-anchor="start" x="158" y="-82.8" font-family="Helvetica,sans-Serif" font-size="11.00" fill="#000000">next_reminder_date</text>
<polygon fill="none" stroke="#000000" points="138,-56.7 138,-75.7 340,-75.7 340,-56.7 138,-56.7"/>
<text text-anchor="start" x="141" y="-62.8" font-family="Helvetica,sans-Serif" font-size="11.00" fill="#000000">...</text>
<polygon fill="#ffffff" stroke="transparent" points="138,-37.7 138,-56.7 233,-56.7 233,-37.7 138,-37.7"/>
<polygon fill="none" stroke="#000000" points="138,-37.7 138,-56.7 233,-56.7 233,-37.7 138,-37.7"/>
<text text-anchor="start" x="141" y="-43.8" font-family="Helvetica,sans-Serif" font-size="11.00" fill="#000000">&lt; 1</text>
<polygon fill="#ffffff" stroke="transparent" points="233,-37.7 233,-56.7 282,-56.7 282,-37.7 233,-37.7"/>
<polygon fill="none" stroke="#000000" points="233,-37.7 233,-56.7 282,-56.7 282,-37.7 233,-37.7"/>
<text text-anchor="start" x="272.8862" y="-43.8" font-family="Helvetica,sans-Serif" font-size="11.00" fill="#000000"> &#160;</text>
<polygon fill="#ffffff" stroke="transparent" points="282,-37.7 282,-56.7 340,-56.7 340,-37.7 282,-37.7"/>
<polygon fill="none" stroke="#000000" points="282,-37.7 282,-56.7 340,-56.7 340,-37.7 282,-37.7"/>
<text text-anchor="start" x="321.4053" y="-43.8" font-family="Helvetica,sans-Serif" font-size="11.00" fill="#000000">1 &gt;</text>
</a>
</g>
</g>
<!-- report -->
<g id="node2" class="node">
<title>report</title>
<g id="a_node2"><a xlink:href="../../tables/report.html" xlink:title="report" target="_top">
<polygon fill="#ffffff" stroke="transparent" points="8,-125.2 8,-186.2 89,-186.2 89,-125.2 8,-125.2"/>
<polygon fill="#f5f5f5" stroke="transparent" points="8.5,-162.7 8.5,-185.7 89.5,-185.7 89.5,-162.7 8.5,-162.7"/>
<polygon fill="none" stroke="#000000" points="8.5,-162.7 8.5,-185.7 89.5,-185.7 89.5,-162.7 8.5,-162.7"/>
<text text-anchor="start" x="13.5" y="-171.3" font-family="Helvetica,sans-Serif" font-weight="bold" font-size="11.00" fill="#000000">report</text>
<text text-anchor="start" x="55.0219" y="-170.8" font-family="Helvetica,sans-Serif" font-size="11.00" fill="#000000">[table]</text>
<polygon fill="none" stroke="#000000" points="8.5,-143.7 8.5,-162.7 89.5,-162.7 89.5,-143.7 8.5,-143.7"/>
<text text-anchor="start" x="11.5" y="-149.8" font-family="Helvetica,sans-Serif" font-size="11.00" fill="#000000">...</text>
<polygon fill="#ffffff" stroke="transparent" points="8.5,-124.7 8.5,-143.7 38.5,-143.7 38.5,-124.7 8.5,-124.7"/>
<polygon fill="none" stroke="#000000" points="8.5,-124.7 8.5,-143.7 38.5,-143.7 38.5,-124.7 8.5,-124.7"/>
<text text-anchor="start" x="11.5" y="-130.8" font-family="Helvetica,sans-Serif" font-size="11.00" fill="#000000"> &#160;</text>
<polygon fill="#ffffff" stroke="transparent" points="38.5,-124.7 38.5,-143.7 59.5,-143.7 59.5,-124.7 38.5,-124.7"/>
<polygon fill="none" stroke="#000000" points="38.5,-124.7 38.5,-143.7 59.5,-143.7 59.5,-124.7 38.5,-124.7"/>
<text text-anchor="start" x="50.3862" y="-130.8" font-family="Helvetica,sans-Serif" font-size="11.00" fill="#000000"> &#160;</text>
<polygon fill="#ffffff" stroke="transparent" points="59.5,-124.7 59.5,-143.7 89.5,-143.7 89.5,-124.7 59.5,-124.7"/>
<polygon fill="none" stroke="#000000" points="59.5,-124.7 59.5,-143.7 89.5,-143.7 89.5,-124.7 59.5,-124.7"/>
<text text-anchor="start" x="70.9053" y="-130.8" font-family="Helvetica,sans-Serif" font-size="11.00" fill="#000000">1 &gt;</text>
</a>
</g>
</g>
<!-- statement&#45;&gt;report -->
<g id="edge1" class="edge">
<title>statement:w&#45;&gt;report:e</title>
<path fill="none" stroke="#000000" d="M123.2829,-152.7C112.2886,-152.7 105.1615,-152.7 89.5,-152.7"/>
<polygon fill="#000000" stroke="#000000" points="130,-152.7001 138,-156.3 134,-152.7 138,-152.7 138,-152.7 138,-152.7 134,-152.7 138,-149.1 130,-152.7001 130,-152.7001"/>
<ellipse fill="none" stroke="#000000" cx="126.8" cy="-152.7001" rx="3.2" ry="3.2"/>
</g>
<!-- statement_amendments -->
<g id="node3" class="node">
<title>statement_amendments</title>
<g id="a_node3"><a xlink:href="../../tables/statement_amendments.html" xlink:title="statement_amendments" target="_top">
<polygon fill="#ffffff" stroke="transparent" points="389,-76.7 389,-232.7 669,-232.7 669,-76.7 389,-76.7"/>
<polygon fill="#f5f5f5" stroke="transparent" points="391,-207.7 391,-230.7 667,-230.7 667,-207.7 391,-207.7"/>
<polygon fill="none" stroke="#000000" points="391,-207.7 391,-230.7 667,-230.7 667,-207.7 391,-207.7"/>
<text text-anchor="start" x="396" y="-216.3" font-family="Helvetica,sans-Serif" font-weight="bold" font-size="11.00" fill="#000000">statement_amendments</text>
<text text-anchor="start" x="632.0437" y="-215.8" font-family="Helvetica,sans-Serif" font-size="11.00" fill="#000000">[table]</text>
<polygon fill="none" stroke="#000000" points="391,-185.7 391,-207.7 575,-207.7 575,-185.7 391,-185.7"/>
<image xlink:href="../../images/primaryKeys.png" width="11px" height="12px" preserveAspectRatio="xMinYMin meet" x="396" y="-202.7"/>
<text text-anchor="start" x="411" y="-192.8" font-family="Helvetica,sans-Serif" font-size="11.00" fill="#000000">id</text>
<polygon fill="none" stroke="#000000" points="575,-185.7 575,-207.7 667,-207.7 667,-185.7 575,-185.7"/>
<text text-anchor="start" x="578" y="-193.4" font-family="Helvetica,sans-Serif" font-size="11.00" fill="#000000">serial[10]</text>
<polygon fill="#ffffff" stroke="transparent" points="391,-163.7 391,-185.7 575,-185.7 575,-163.7 391,-163.7"/>
<polygon fill="none" stroke="#000000" points="391,-163.7 391,-185.7 575,-185.7 575,-163.7 391,-163.7"/>
<image xlink:href="../../images/foreignKeys.png" width="11px" height="12px" preserveAspectRatio="xMinYMin meet" x="396" y="-180.7"/>
<text text-anchor="start" x="411" y="-170.8" font-family="Helvetica,sans-Serif" font-size="11.00" fill="#000000">statement_id</text>
<polygon fill="none" stroke="#000000" points="575,-163.7 575,-185.7 667,-185.7 667,-163.7 575,-163.7"/>
<text text-anchor="start" x="578" y="-171.4" font-family="Helvetica,sans-Serif" font-size="11.00" fill="#000000">int4[10]</text>
<polygon fill="none" stroke="#000000" points="391,-141.7 391,-163.7 575,-163.7 575,-141.7 391,-141.7"/>
<text text-anchor="start" x="411" y="-148.8" font-family="Helvetica,sans-Serif" font-size="11.00" fill="#000000">additional_comment</text>
<polygon fill="none" stroke="#000000" points="575,-141.7 575,-163.7 667,-163.7 667,-141.7 575,-141.7"/>
<text text-anchor="start" x="578" y="-149.4" font-family="Helvetica,sans-Serif" font-size="11.00" fill="#000000">text[2147483647]</text>
<polygon fill="none" stroke="#000000" points="391,-119.7 391,-141.7 575,-141.7 575,-119.7 391,-119.7"/>
<text text-anchor="start" x="411" y="-126.8" font-family="Helvetica,sans-Serif" font-size="11.00" fill="#000000">date_submitted</text>
<polygon fill="none" stroke="#000000" points="575,-119.7 575,-141.7 667,-141.7 667,-119.7 575,-119.7"/>
<text text-anchor="start" x="577.6023" y="-127.4" font-family="Helvetica,sans-Serif" font-size="11.00" fill="#000000">timestamptz[35,6]</text>
<polygon fill="none" stroke="#000000" points="391,-97.7 391,-119.7 575,-119.7 575,-97.7 391,-97.7"/>
<text text-anchor="start" x="411" y="-104.8" font-family="Helvetica,sans-Serif" font-size="11.00" fill="#000000">deleted</text>
<polygon fill="none" stroke="#000000" points="575,-97.7 575,-119.7 667,-119.7 667,-97.7 575,-97.7"/>
<text text-anchor="start" x="577.6023" y="-105.4" font-family="Helvetica,sans-Serif" font-size="11.00" fill="#000000">timestamptz[35,6]</text>
<polygon fill="#ffffff" stroke="transparent" points="391,-78.7 391,-97.7 487,-97.7 487,-78.7 391,-78.7"/>
<polygon fill="none" stroke="#000000" points="391,-78.7 391,-97.7 487,-97.7 487,-78.7 391,-78.7"/>
<text text-anchor="start" x="394" y="-84.8" font-family="Helvetica,sans-Serif" font-size="11.00" fill="#000000">&lt; 1</text>
<polygon fill="#ffffff" stroke="transparent" points="487,-78.7 487,-97.7 575,-97.7 575,-78.7 487,-78.7"/>
<polygon fill="none" stroke="#000000" points="487,-78.7 487,-97.7 575,-97.7 575,-78.7 487,-78.7"/>
<text text-anchor="start" x="565.8862" y="-84.8" font-family="Helvetica,sans-Serif" font-size="11.00" fill="#000000"> &#160;</text>
<polygon fill="#ffffff" stroke="transparent" points="575,-78.7 575,-97.7 667,-97.7 667,-78.7 575,-78.7"/>
<polygon fill="none" stroke="#000000" points="575,-78.7 575,-97.7 667,-97.7 667,-78.7 575,-78.7"/>
<text text-anchor="start" x="648.4053" y="-84.8" font-family="Helvetica,sans-Serif" font-size="11.00" fill="#000000">0 &gt;</text>
<polygon fill="none" stroke="#000000" stroke-width="2" points="390,-77.7 390,-231.7 668,-231.7 668,-77.7 390,-77.7"/>
</a>
</g>
</g>
<!-- statement_amendments&#45;&gt;statement -->
<g id="edge2" class="edge">
<title>statement_amendments:w&#45;&gt;statement:e</title>
<path fill="none" stroke="#000000" d="M376.276,-174.7C364.2815,-174.7 356.8229,-174.7 340,-174.7"/>
<polygon fill="#000000" stroke="#000000" points="383,-174.7001 391,-178.3 387,-174.7 391,-174.7 391,-174.7 391,-174.7 387,-174.7 391,-171.1 383,-174.7001 383,-174.7001"/>
<ellipse fill="none" stroke="#000000" cx="379.8" cy="-174.7001" rx="3.2" ry="3.2"/>
</g>
</g>
</svg>
